name C:\Users\u0150099\Documents\master_thesis\3dpredictsim\Results\debug\Fal_s1_mtjc2_sc_cspx10_oy2_TrackAnkleQSubtQ_ATx80_MTc2_MTPm_k1_d01_MTJm_nl_MG_exp5_table_d01_PF_Natali2010_x3_ls146_ig21.mot
datacolumns 128
datarows 4
range 1.68551033 1.71922054
endheader
time	pelvis_tilt	pelvis_list	pelvis_rotation	pelvis_tx	pelvis_ty	pelvis_tz	hip_flexion_l	hip_adduction_l	hip_rotation_l	hip_flexion_r	hip_adduction_r	hip_rotation_r	knee_angle_l	knee_angle_r	ankle_angle_l	ankle_angle_r	subtalar_angle_l	subtalar_angle_r	mtj_angle_l	mtj_angle_r	mtp_angle_l	mtp_angle_r	lumbar_extension	lumbar_bending	lumbar_rotation	arm_flex_l	arm_add_l	arm_rot_l	arm_flex_r	arm_add_r	arm_rot_r	elbow_flex_l	elbow_flex_r	pro_sup_l	pro_sup_r	glut_med1_l/activation	glut_med2_l/activation	glut_med3_l/activation	glut_min1_l/activation	glut_min2_l/activation	glut_min3_l/activation	semimem_l/activation	semiten_l/activation	bifemlh_l/activation	bifemsh_l/activation	sar_l/activation	add_long_l/activation	add_brev_l/activation	add_mag1_l/activation	add_mag2_l/activation	add_mag3_l/activation	tfl_l/activation	pect_l/activation	grac_l/activation	glut_max1_l/activation	glut_max2_l/activation	glut_max3_l/activation	iliacus_l/activation	psoas_l/activation	quad_fem_l/activation	gem_l/activation	peri_l/activation	rect_fem_l/activation	vas_med_l/activation	vas_int_l/activation	vas_lat_l/activation	med_gas_l/activation	lat_gas_l/activation	soleus_l/activation	tib_post_l/activation	flex_dig_l/activation	flex_hal_l/activation	tib_ant_l/activation	per_brev_l/activation	per_long_l/activation	per_tert_l/activation	ext_dig_l/activation	ext_hal_l/activation	ercspn_l/activation	intobl_l/activation	extobl_l/activation	glut_med1_r/activation	glut_med2_r/activation	glut_med3_r/activation	glut_min1_r/activation	glut_min2_r/activation	glut_min3_r/activation	semimem_r/activation	semiten_r/activation	bifemlh_r/activation	bifemsh_r/activation	sar_r/activation	add_long_r/activation	add_brev_r/activation	add_mag1_r/activation	add_mag2_r/activation	add_mag3_r/activation	tfl_r/activation	pect_r/activation	grac_r/activation	glut_max1_r/activation	glut_max2_r/activation	glut_max3_r/activation	iliacus_r/activation	psoas_r/activation	quad_fem_r/activation	gem_r/activation	peri_r/activation	rect_fem_r/activation	vas_med_r/activation	vas_int_r/activation	vas_lat_r/activation	med_gas_r/activation	lat_gas_r/activation	soleus_r/activation	tib_post_r/activation	flex_dig_r/activation	flex_hal_r/activation	tib_ant_r/activation	per_brev_r/activation	per_long_r/activation	per_tert_r/activation	ext_dig_r/activation	ext_hal_r/activation	ercspn_r/activation	intobl_r/activation	extobl_r/activation	
          1.68551033	         -2.91258752	          1.07611136	         -4.81041922	          2.24172874	          0.90491907	          0.00478025	         28.00215116	          1.97829192	         -2.56233326	        -19.72539141	          1.03252033	          8.26756939	         -6.35508370	         -6.85023884	          1.39780685	          4.77822602	         -0.22633201	          5.10586068	          2.55242986	         -1.57254481	         -6.65766755	         17.35494154	         -3.05985513	          0.26335639	          1.84879794	         -6.23598761	        -13.45024882	          6.70117154	          3.93354604	        -13.86868527	         19.26385275	         23.96896456	         36.14767334	         86.51662706	         86.51662706	          0.05000570	          0.05000006	          0.05936394	          0.05000002	          0.05000003	          0.05000018	          0.34159472	          0.07048154	          0.07048160	          0.05000008	          0.05000011	          0.12887432	          0.15473100	          0.15476940	          0.15796110	          0.13535881	          0.05000098	          0.05000381	          0.10676180	          0.05936616	          0.09814422	          0.10578006	          0.05000001	          0.05000001	          0.16932912	          0.05000008	          0.05000003	          0.05000002	          0.05936340	          0.05936352	          0.05373059	          0.09194402	          0.07657307	          0.05449484	          0.05000003	          0.07913131	          0.05028432	          0.24599199	          0.05936388	          0.08145102	          0.29254696	          0.61962748	          0.30844002	          0.05154899	          0.11724819	          0.11832242	          0.33550776	          0.09560741	          0.05936395	          0.44751912	          0.25378684	          0.11699269	          0.05000023	          0.05000002	          0.05000002	          0.08413286	          0.11795986	          0.05000000	          0.05000000	          0.05000001	          0.05000007	          0.05000005	          0.70923382	          0.05000004	          0.05000005	          0.05000215	          0.05000037	          0.05000013	          0.39142970	          0.78573717	          0.05000001	          0.05000010	          0.05000006	          0.34389915	          0.05000005	          0.05000005	          0.05000004	          0.43584458	          0.51650735	          0.30225159	          0.47142214	          0.40501047	          0.54170520	          0.05000000	          0.07358064	          0.29181105	          0.05000000	          0.05000000	          0.12120637	          0.05000000	          0.05000000	          0.05000000	
          1.69674707	         -2.92054094	          1.22041962	         -5.08139677	          2.25955921	          0.90440322	          0.00454114	         27.53738820	          2.41133847	         -2.47402552	        -19.74985518	          0.66868087	          8.19699511	         -6.39243446	         -8.49625122	          1.03761524	          3.78471977	         -0.44752249	          5.36416092	          2.64645491	         -2.92887562	         -6.79295175	         20.79455606	         -2.90216356	          0.01412058	          1.95449406	         -7.06550723	        -13.45128607	          6.56293493	          3.48088155	        -13.81769668	         19.11776924	         23.55198887	         37.59707179	         86.51662706	         86.51662706	          0.05936393	          0.05936393	          0.05000002	          0.05936395	          0.05936394	          0.05936368	          0.30465249	          0.05936395	          0.05936398	          0.05936393	          0.05000006	          0.13074905	          0.17408170	          0.13035651	          0.19378318	          0.15158484	          0.05000001	          0.05001384	          0.08992153	          0.05000189	          0.08628871	          0.16629034	          0.05000031	          0.05000007	          0.33970274	          0.19275166	          0.09653124	          0.05000000	          0.05000001	          0.05000001	          0.05000001	          0.08368125	          0.07203227	          0.05000000	          0.05569049	          0.08368098	          0.07984847	          0.24225334	          0.05000002	          0.13062449	          0.28667430	          0.64783056	          0.31215359	          0.05000000	          0.09875371	          0.09965849	          0.28258547	          0.08052649	          0.05000000	          0.37692839	          0.21375503	          0.09853851	          0.05000047	          0.05000003	          0.05000001	          0.07086192	          0.09935313	          0.07958430	          0.05000014	          0.05000009	          0.05000026	          0.05000023	          0.64193770	          0.05087760	          0.05000004	          0.05000010	          0.05000008	          0.05000009	          0.32968639	          0.72723880	          0.05000000	          0.05000002	          0.05000001	          0.36279075	          0.07549390	          0.07851035	          0.06421769	          0.36709535	          0.43503455	          0.25457505	          0.42697762	          0.42512569	          0.47523597	          0.05000000	          0.08251484	          0.27980457	          0.05000000	          0.05000000	          0.10208753	          0.05000000	          0.05500221	          0.08368255	
          1.70798380	         -2.92463869	          1.37944653	         -5.32760924	          2.27771516	          0.90398587	          0.00426738	         27.08479328	          2.81222749	         -2.37355725	        -19.69208513	          0.28798385	          8.09084198	         -7.13508959	        -10.21551845	          0.23363812	          2.48821921	         -0.68940963	          5.59982940	          2.69341407	         -4.39672540	         -6.76319593	         24.54337809	         -2.73058538	         -0.25348781	          2.05303419	         -7.90853130	        -13.46590865	          6.59721391	          2.93957202	        -13.78018332	         18.95200527	         23.13356239	         39.08101609	         86.51662706	         86.51662706	          0.05000000	          0.05000000	          0.12057254	          0.05000000	          0.05000000	          0.05000000	          0.25659724	          0.05000001	          0.05000003	          0.05000000	          0.05000006	          0.11012501	          0.25889560	          0.26581721	          0.18525346	          0.18965700	          0.05000030	          0.07048436	          0.07573751	          0.09510139	          0.15022738	          0.18218622	          0.05000001	          0.05000005	          0.47812065	          0.16234742	          0.08130461	          0.06371439	          0.14515737	          0.14189023	          0.10863388	          0.07048155	          0.07048155	          0.06908913	          0.05000000	          0.07048135	          0.06725343	          0.34794916	          0.10353818	          0.11002006	          0.59217911	          0.68135774	          0.52802200	          0.05000000	          0.08317650	          0.08393857	          0.23801103	          0.06782441	          0.05936393	          0.31747249	          0.18003776	          0.08299525	          0.05000035	          0.05000009	          0.05358391	          0.05968431	          0.08368139	          0.16155380	          0.17650678	          0.05936409	          0.05936401	          0.05936404	          0.61198170	          0.05000264	          0.05000527	          0.05936316	          0.05936387	          0.05936393	          0.27768235	          0.66709141	          0.05936394	          0.05936394	          0.05000023	          0.30556492	          0.11674859	          0.12110452	          0.09222194	          0.30919049	          0.36641310	          0.21441890	          0.35962706	          0.35806734	          0.40027326	          0.05000000	          0.06949913	          0.26005969	          0.05000000	          0.05000000	          0.08598445	          0.05004356	          0.07048154	          0.07048265	
          1.71922054	         -2.92597650	          1.57966909	         -5.55121760	          2.29607743	          0.90371074	          0.00400461	         26.57463425	          3.14562273	         -2.20625217	        -19.52079390	         -0.12137154	          7.94430091	         -8.16103604	        -12.02909092	         -0.73321766	          0.81948161	         -0.90751244	          5.75510141	          2.84065458	         -5.93062915	         -6.62491563	         28.57608759	         -2.55048002	         -0.56964456	          2.14021577	         -8.73540831	        -13.50086841	          6.79738320	          2.33581785	        -13.73982096	         18.77705032	         22.67703738	         40.57064351	         86.51662706	         86.51662706	          0.34161443	          0.36355174	          0.42205080	          0.36543535	          0.28249048	          0.25073902	          0.21612213	          0.16598545	          0.11315293	          0.11789134	          0.05936403	          0.09275412	          0.21805795	          0.22388776	          0.15603198	          0.20643244	          0.05000004	          0.05936637	          0.20396448	          0.27159833	          0.23235902	          0.15344890	          0.05936394	          0.05936392	          0.40270289	          0.13673910	          0.13001630	          0.05366422	          0.12226055	          0.11950876	          0.09149820	          0.05936394	          0.05936394	          0.05819116	          0.05593978	          0.05936377	          0.05664502	          0.39319503	          0.08720629	          0.09271336	          0.49877001	          0.81782666	          0.73016193	          0.06387478	          0.09625883	          0.07069827	          0.20357027	          0.05712593	          0.05000000	          0.34951236	          0.15163899	          0.06990376	          0.05000043	          0.05000002	          0.05000000	          0.05936393	          0.07048170	          0.13607067	          0.14866498	          0.05000013	          0.05000010	          0.05000010	          0.67362772	          0.05936822	          0.05000003	          0.05000006	          0.05000003	          0.05000003	          0.25155436	          0.67251445	          0.05000000	          0.05000001	          0.05000000	          0.25736575	          0.09833291	          0.10200175	          0.07767505	          0.26041942	          0.30861586	          0.18059691	          0.30290023	          0.30158655	          0.33713499	          0.05308507	          0.13846416	          0.23162131	          0.05000001	          0.05000001	          0.07242145	          0.08952952	          0.05936393	          0.05936486	
